# Blender 3.6.2
# www.blender.org
mtllib uh60_helice_back.mtl
o uh60.002
v 0.263990 1.361200 -0.050459
v 0.251330 1.361200 -0.052009
v 0.241070 1.361200 0.136091
v 0.228410 1.361200 0.134531
v 0.251280 0.714540 0.137341
v 0.216980 0.714540 0.133131
v 0.225560 0.511440 0.024011
v 0.194740 0.511440 0.020221
v 0.230580 0.483120 -0.016909
v 0.199770 0.483120 -0.020699
v 0.263520 0.468890 0.069661
v 0.221000 0.468890 0.064431
v 0.304990 0.357070 -0.115199
v 0.274170 0.357070 -0.118989
v 0.289220 0.357070 0.013201
v 0.258400 0.357070 0.009421
v 0.304990 0.331210 -0.115199
v 0.274170 0.331210 -0.118989
v 0.289220 0.331210 0.013201
v 0.258400 0.331210 0.009421
v 0.287330 0.285291 -0.056969
v 0.228990 0.285291 -0.064139
v 0.270680 0.285291 0.078501
v 0.212340 0.285291 0.071331
v 0.266780 0.262970 0.070061
v 0.217370 0.262970 0.063991
v 0.248370 0.256801 -0.161689
v 0.217560 0.256801 -0.165479
v 0.281430 0.255740 -0.048309
v 0.231780 0.255740 -0.054409
v 0.355420 0.250410 -0.156299
v 0.384230 0.249021 -0.151379
v 0.230840 0.249021 -0.170229
v 0.289530 0.248691 -0.074939
v 0.231190 0.248691 -0.082109
v 0.268470 0.248691 0.096461
v 0.210140 0.248691 0.089301
v 0.375460 0.238820 -0.168259
v 0.338890 0.238820 -0.172759
v 0.358910 0.227230 -0.184719
v 0.387480 0.222401 -0.177819
v 0.234090 0.222401 -0.196659
v 0.380980 0.222401 -0.124949
v 0.227600 0.222401 -0.143789
v 0.244920 0.215590 -0.133569
v 0.214100 0.215590 -0.137359
v 0.306270 0.214470 0.243741
v 0.336630 0.209280 0.236051
v 0.183240 0.209280 0.217201
v 0.323140 0.200260 0.257611
v 0.286560 0.200260 0.253121
v 0.384230 0.195781 -0.151379
v 0.230840 0.195781 -0.170229
v 0.303420 0.186050 0.267001
v 0.339880 0.182660 0.209611
v 0.186490 0.182660 0.190771
v 0.333380 0.182660 0.262481
v 0.180000 0.182660 0.243641
v 0.197270 0.174120 0.254221
v 0.166460 0.174120 0.250431
v 0.336630 0.156040 0.236051
v 0.183240 0.156040 0.217201
v 0.202300 0.145801 0.213301
v 0.171490 0.145801 0.209521
v 0.249600 0.134900 0.335661
v 0.218780 0.134900 0.331871
v 0.246450 0.134900 0.361341
v 0.215620 0.134900 0.357551
v 0.422040 0.134260 -1.336919
v 0.409380 0.134260 -1.338469
v 0.353360 0.134260 -0.693539
v 0.319060 0.134260 -0.697759
v 0.308770 0.091050 -0.231479
v 0.250430 0.091050 -0.238649
v 0.249240 0.091050 0.253011
v 0.190900 0.091050 0.245841
v 0.312340 0.072960 -0.260559
v 0.254000 0.072960 -0.267729
v 0.245670 0.072960 0.282081
v 0.187330 0.072960 0.274911
v 0.243690 0.065660 0.258861
v 0.194040 0.065660 0.252761
v 0.091380 0.065661 1.354441
v 0.078720 0.065661 1.352881
v 0.327260 0.065620 -0.449129
v 0.284740 0.065620 -0.454349
v 0.305400 0.065620 -0.244249
v 0.255980 0.065620 -0.250319
v 0.367130 0.035561 0.000581
v 0.001620 0.035561 -0.044329
v 0.361890 0.035561 0.043241
v -0.003620 0.035561 -0.001669
v 0.169660 0.028311 0.478961
v 0.138850 0.028311 0.475181
v 0.289530 0.024960 -0.496659
v 0.258710 0.024960 -0.500449
v 0.332100 0.006480 -0.335819
v 0.301280 0.006480 -0.339599
v 0.328940 0.006480 -0.310139
v 0.298120 0.006480 -0.313929
v 0.249600 0.005590 0.335661
v 0.218780 0.005590 0.331871
v 0.246450 0.005590 0.361341
v 0.215620 0.005590 0.357551
v 0.368750 -0.005290 -0.012599
v 0.003240 -0.005290 -0.057509
v 0.360270 -0.005290 0.056421
v -0.005240 -0.005290 0.011511
v 0.166210 -0.012890 0.507081
v 0.135390 -0.012890 0.503301
v 0.286070 -0.016250 -0.468539
v 0.255260 -0.016250 -0.472329
v 0.364510 -0.030540 0.021911
v -0.001000 -0.030540 -0.022999
v 0.242700 -0.053559 0.266031
v 0.193290 -0.053559 0.259961
v 0.214320 -0.053559 0.470101
v 0.171800 -0.053559 0.464881
v 0.422040 -0.053590 -1.336919
v 0.409380 -0.053590 -1.338469
v 0.304620 -0.053590 -0.237049
v 0.254970 -0.053590 -0.243149
v 0.312340 -0.058310 -0.260559
v 0.254000 -0.058310 -0.267729
v 0.245670 -0.058310 0.282081
v 0.187330 -0.058310 0.274911
v 0.308770 -0.081570 -0.231479
v 0.250430 -0.081570 -0.238649
v 0.249240 -0.081570 0.253011
v 0.190900 -0.081570 0.245841
v 0.180480 -0.122189 0.713561
v 0.146180 -0.122189 0.709351
v 0.091380 -0.122189 1.354441
v 0.078720 -0.122189 1.352881
v 0.332100 -0.122829 -0.335819
v 0.301280 -0.122829 -0.339599
v 0.328940 -0.122829 -0.310139
v 0.298120 -0.122829 -0.313929
v 0.253430 -0.133730 -0.202869
v 0.222620 -0.133730 -0.206659
v 0.389300 -0.142950 -0.192639
v 0.235910 -0.142950 -0.211489
v 0.258460 -0.162049 -0.243789
v 0.227650 -0.162049 -0.247579
v 0.363070 -0.169310 -0.218569
v 0.392550 -0.169570 -0.219069
v 0.239160 -0.169570 -0.237919
v 0.386050 -0.169570 -0.166199
v 0.232660 -0.169570 -0.185039
v 0.379930 -0.183519 -0.204689
v 0.343360 -0.183519 -0.209179
v 0.341840 -0.186220 0.193651
v 0.188450 -0.186220 0.174801
v 0.389300 -0.196190 -0.192639
v 0.235910 -0.196190 -0.211489
v 0.360210 -0.197730 -0.195309
v 0.210810 -0.203520 0.144001
v 0.180000 -0.203520 0.140221
v 0.345090 -0.212840 0.167211
v 0.191700 -0.212840 0.148371
v 0.338590 -0.212840 0.220081
v 0.185200 -0.212840 0.201231
v 0.309100 -0.218480 0.220751
v 0.329140 -0.230070 0.208781
v 0.292560 -0.230070 0.204281
v 0.289530 -0.239220 -0.074939
v 0.231190 -0.239220 -0.082109
v 0.268470 -0.239220 0.096461
v 0.210140 -0.239220 0.089301
v 0.341840 -0.239460 0.193651
v 0.188450 -0.239460 0.174801
v 0.312590 -0.241660 0.192321
v 0.266880 -0.243670 0.070111
v 0.217230 -0.243670 0.064011
v 0.207360 -0.244730 0.172121
v 0.176550 -0.244730 0.168341
v 0.281320 -0.250899 -0.048289
v 0.231910 -0.250899 -0.054359
v 0.287330 -0.275809 -0.056969
v 0.228990 -0.275809 -0.064139
v 0.270680 -0.275809 0.078501
v 0.212340 -0.275809 0.071331
v 0.289330 -0.319139 0.012321
v 0.258500 -0.319139 0.008531
v 0.273550 -0.319139 0.140721
v 0.242730 -0.319139 0.136941
v 0.289330 -0.344999 0.012321
v 0.258500 -0.344999 0.008531
v 0.273550 -0.344999 0.140721
v 0.242730 -0.344999 0.136941
v 0.278060 -0.456820 -0.048689
v 0.235540 -0.456820 -0.053909
v 0.225150 -0.471060 0.027331
v 0.194330 -0.471060 0.023551
v 0.230170 -0.499380 -0.013579
v 0.199360 -0.499380 -0.017359
v 0.282560 -0.702470 -0.117319
v 0.248270 -0.702470 -0.121539
v 0.272360 -1.349130 -0.118579
v 0.259700 -1.349130 -0.120129
v 0.249440 -1.349130 0.067971
v 0.236780 -1.349130 0.066411
vn 0.0287 -0.9719 -0.2337
vn 0.1216 -0.0765 -0.9896
vn 0.1039 -0.5240 -0.8453
vn 0.1039 -0.5240 -0.8454
vn -0.0288 -0.9719 0.2337
vn 0.0465 0.9246 -0.3782
vn 0.0929 0.6477 -0.7562
vn 0.1038 -0.5240 -0.8454
vn 0.0466 0.9246 -0.3781
vn -0.0929 0.6477 0.7562
vn -0.0465 0.9246 0.3782
vn -0.0465 0.9246 0.3781
vn -0.1038 -0.5240 0.8453
vn -0.1216 -0.0765 0.9896
vn -0.1039 -0.5240 0.8454
vn 0.0288 -0.9719 -0.2337
vn -0.0287 -0.9719 0.2338
vn -0.0287 -0.9719 0.2337
vn -0.1039 -0.5240 0.8453
vn 0.9925 -0.0000 0.1219
vn -0.9662 -0.2439 0.0838
vn 0.2402 -0.7319 0.6377
vn -0.3877 -0.7319 0.5604
vn -0.3877 -0.7318 0.5604
vn -0.9171 0.2438 -0.3153
vn -0.9662 -0.2439 0.0839
vn 0.2403 -0.7319 0.6376
vn 0.9662 0.2439 -0.0840
vn 0.9171 -0.2439 0.3153
vn -0.3877 -0.7318 0.5605
vn -0.2405 0.7318 -0.6377
vn 0.3875 0.7319 -0.5606
vn 0.3875 0.7319 -0.5605
vn 0.9171 -0.2440 0.3153
vn 0.9661 0.2439 -0.0840
vn -0.2405 0.7319 -0.6376
vn -0.9662 -0.2438 0.0839
vn -0.9171 0.2439 -0.3153
vn -0.9172 0.2439 -0.3152
vn 0.0940 -0.6360 -0.7659
vn 0.0941 -0.6359 -0.7660
vn 0.0941 -0.6360 -0.7659
vn -0.0941 0.6359 0.7660
vn -0.0940 0.6358 0.7661
vn -0.0942 0.6362 0.7658
vn 0.0385 -0.9486 -0.3141
vn 0.1157 0.3161 -0.9416
vn 0.1157 -0.3161 -0.9417
vn 0.1157 -0.3161 -0.9416
vn -0.0386 -0.9486 0.3141
vn 0.0386 -0.9486 -0.3140
vn 0.1158 0.3161 -0.9416
vn -0.0386 0.9486 0.3140
vn 0.0386 0.9487 -0.3140
vn 0.0386 0.9486 -0.3140
vn 0.1156 -0.3161 -0.9417
vn -0.0385 0.9486 0.3141
vn -0.1157 -0.3161 0.9416
vn -0.1157 0.3161 0.9416
vn -0.1158 0.3161 0.9416
vn -0.0386 0.9487 0.3140
vn -0.1156 -0.3161 0.9416
vn -0.0386 -0.9486 0.3140
vn -0.0385 -0.9486 0.3140
vn -0.9926 -0.0000 -0.1217
vn -0.9925 -0.0000 -0.1220
vn 0.9925 -0.0000 0.1220
vn 0.0385 -0.9487 -0.3140
vn 0.1157 0.3160 -0.9417
vn -0.0385 0.9487 0.3140
vn -0.1157 -0.3161 0.9417
vn -0.1155 0.3161 0.9417
vn 0.0385 -0.9486 -0.3140
vn -0.0386 -0.9487 0.3140
vn -0.1157 0.3161 0.9417
vn 0.1157 0.3161 -0.9417
vn 0.1158 -0.3161 -0.9417
vn -0.0385 -0.9487 0.3138
vn 0.0386 -0.9486 -0.3141
vn -0.0385 0.9487 0.3138
vn 0.0385 0.9486 -0.3141
vn -0.1158 -0.3162 0.9416
vn -0.1157 0.3162 0.9416
vn -0.0386 0.9487 0.3139
vn 0.0386 -0.9487 -0.3140
vn -0.0386 -0.9487 0.3139
vn -0.1157 -0.3162 0.9416
vn -0.0387 0.9486 0.3140
vn -0.1156 0.3161 0.9417
vn -0.1156 -0.3161 0.9417
vn -0.9716 0.1989 0.1281
vn 0.2239 0.5969 0.7704
vn -0.4040 0.5968 0.6932
vn -0.4040 0.5968 0.6933
vn -0.9117 -0.1988 -0.3596
vn -0.9716 0.1988 0.1281
vn 0.2239 0.5970 0.7703
vn 0.9716 -0.1990 -0.1284
vn 0.9117 0.1989 0.3596
vn 0.2239 0.5968 0.7705
vn -0.2242 -0.5968 -0.7704
vn 0.4037 -0.5968 -0.6934
vn 0.9116 0.1989 0.3596
vn 0.9716 -0.1990 -0.1283
vn -0.2241 -0.5968 -0.7704
vn -0.9117 -0.1989 -0.3596
vn -0.9117 -0.1989 -0.3595
vn 0.4037 -0.5969 -0.6933
vn -0.2241 -0.5968 -0.7705
vn -0.0767 -0.7770 0.6247
vn -0.0767 -0.7772 0.6246
vn -0.0768 -0.7772 0.6245
vn 0.0768 0.7770 -0.6248
vn 0.0769 0.7772 -0.6245
vn -0.9925 -0.0000 -0.1219
vn 0.1220 -0.0000 -0.9925
vn -0.0000 -1.0000 -0.0000
vn -0.1222 -0.0000 0.9925
vn -0.1218 -0.0000 0.9926
vn -0.0000 1.0000 -0.0000
vn -0.1220 -0.0000 0.9925
vn -0.1219 -0.0000 0.9925
vn -0.1216 -0.0000 0.9926
vn -0.1174 -0.2690 0.9560
vn -0.1173 -0.2692 0.9559
vn -0.1223 -0.0000 0.9925
vn 0.1219 -0.0000 -0.9925
vn -0.0074 -0.9982 0.0601
vn 0.9924 0.0159 0.1219
vn 0.9924 0.0159 0.1222
vn 0.9924 0.0159 0.1218
vn 0.9924 0.0159 0.1220
vn 0.9924 0.0159 0.1224
vn -0.9923 0.0177 -0.1222
vn -0.9924 0.0178 -0.1219
vn -0.9923 0.0178 -0.1224
vn -0.9924 0.0178 -0.1218
vn 0.9926 -0.0001 0.1218
vn -0.9925 -0.0001 -0.1220
vn 0.1005 -0.5662 -0.8181
vn 0.1003 -0.5666 -0.8179
vn -0.0690 -0.8242 0.5621
vn -0.0691 -0.8240 0.5624
vn -0.1006 0.5666 0.8178
vn 0.0691 0.8241 -0.5622
vn 0.0691 0.8241 -0.5623
vn -0.1221 -0.0000 0.9925
vn 0.1217 -0.0000 -0.9926
vn 0.0328 -0.9632 -0.2670
vn 0.1217 -0.0606 -0.9907
vn 0.9905 -0.0000 0.1377
vn 0.9905 0.0001 0.1377
vn 0.9905 -0.0004 0.1377
vn -0.9946 -0.0000 -0.1043
vn -0.9946 -0.0001 -0.1042
vn -0.9945 -0.0000 -0.1043
vn 0.9925 0.0001 0.1219
vn -0.9925 0.0001 -0.1220
vn -0.9925 -0.0001 -0.1219
vn 0.0689 0.8243 -0.5620
vn 0.0690 0.8243 -0.5620
vn 0.1003 -0.5665 -0.8179
vn 0.1004 -0.5665 -0.8179
vn -0.0689 -0.8242 0.5620
vn -0.1005 0.5664 0.8180
vn -0.1003 0.5666 0.8179
vn 0.9925 -0.0000 0.1221
vn -0.9926 -0.0000 -0.1218
vn 0.1174 0.2692 -0.9559
vn 0.1174 0.2690 -0.9560
vn 0.1218 -0.0000 -0.9926
vn 0.0074 0.9982 -0.0601
vn 0.9924 -0.0159 0.1219
vn 0.9925 -0.0159 0.1216
vn 0.9924 -0.0159 0.1221
vn 0.9924 -0.0159 0.1220
vn 0.9924 -0.0159 0.1217
vn -0.9924 -0.0177 -0.1217
vn -0.9924 -0.0178 -0.1220
vn -0.9924 -0.0177 -0.1215
vn -0.9924 -0.0178 -0.1218
vn -0.9924 -0.0178 -0.1215
vn -0.9924 -0.0178 -0.1219
vn 0.9925 -0.0001 0.1219
vn -0.1006 0.5661 0.8182
vn -0.1005 0.5662 0.8181
vn 0.0691 0.8243 -0.5620
vn 0.1006 -0.5666 -0.8178
vn -0.0691 -0.8240 0.5623
vn -0.0328 0.9631 0.2670
vn -0.0328 0.9630 0.2674
vn -0.1217 0.0600 0.9907
vn -0.1218 0.0603 0.9907
vn 0.9944 -0.0000 0.1061
vn 0.9943 -0.0001 0.1062
vn 0.9943 -0.0000 0.1062
vn 0.9944 0.0005 0.1061
vn -0.9902 -0.0000 -0.1396
vn -0.9902 -0.0001 -0.1396
vn 0.9925 -0.0001 0.1220
vn -0.1005 0.5661 0.8182
vn -0.1006 0.5665 0.8179
vn 0.0691 0.8240 -0.5624
vn 0.1006 -0.5665 -0.8179
vn 0.9926 -0.0000 0.1218
vn -0.9925 -0.0000 -0.1222
vt 0.316660 0.281540
vt 0.314890 0.281300
vt 0.314130 0.282910
vt 0.315420 0.284140
vt 0.316980 0.283290
vt 0.314210 0.270480
vt 0.314970 0.270380
vt 0.318010 0.295190
vt 0.317250 0.295280
vt 0.313450 0.270570
vt 0.316500 0.295370
vt 0.304970 0.283370
vt 0.303410 0.283410
vt 0.303450 0.284970
vt 0.305010 0.284930
vt 0.327820 0.280200
vt 0.326260 0.280240
vt 0.326300 0.281800
vt 0.327860 0.281760
vt 0.314900 0.270400
vt 0.313340 0.270450
vt 0.313380 0.272000
vt 0.314940 0.271960
vt 0.317820 0.293300
vt 0.316260 0.293340
vt 0.316310 0.294900
vt 0.317860 0.294850
vt 0.328050 0.280950
vt 0.328150 0.281710
vt 0.303370 0.284970
vt 0.303270 0.284210
vt 0.327950 0.280190
vt 0.303170 0.283460
vt 0.306080 0.287450
vt 0.311270 0.292370
vt 0.325180 0.277710
vt 0.319990 0.272790
vt 0.310760 0.273030
vt 0.305840 0.278220
vt 0.320500 0.292130
vt 0.325420 0.286940
vt 0.305580 0.289060
vt 0.309680 0.292950
vt 0.325680 0.276090
vt 0.321580 0.272200
vt 0.309220 0.272890
vt 0.305480 0.276840
vt 0.321900 0.292420
vt 0.325640 0.288470
vt 0.304210 0.298240
vt 0.310080 0.292060
vt 0.299270 0.307580
vt 0.865280 0.239060
vt 0.715190 0.239060
vt 0.865280 0.195460
vt 0.608700 0.195460
vt 0.306710 0.288440
vt 0.658170 0.223130
vt 0.610380 0.223130
vt 0.318360 0.294840
vt 0.317930 0.292810
vt 0.301350 0.296340
vt 0.301780 0.298360
vt 0.305620 0.293200
vt 0.306360 0.292420
vt 0.302480 0.288730
vt 0.301740 0.289510
vt 0.331220 0.294040
vt 0.325040 0.288170
vt 0.340560 0.298990
vt 0.865900 0.239140
vt 0.715810 0.239140
vt 0.865900 0.195540
vt 0.609320 0.195540
vt 0.321420 0.291550
vt 0.658790 0.223210
vt 0.611000 0.223210
vt 0.327820 0.279900
vt 0.325790 0.280330
vt 0.329320 0.296910
vt 0.331340 0.296480
vt 0.326180 0.292630
vt 0.325400 0.291900
vt 0.321710 0.295780
vt 0.322490 0.296520
vt 0.327020 0.267030
vt 0.321150 0.273220
vt 0.331970 0.257690
vt 0.865440 0.239070
vt 0.715350 0.239070
vt 0.865440 0.195470
vt 0.608860 0.195470
vt 0.324530 0.276840
vt 0.658330 0.223140
vt 0.610540 0.223140
vt 0.312880 0.270440
vt 0.313310 0.272460
vt 0.329890 0.268940
vt 0.329460 0.266910
vt 0.325610 0.272080
vt 0.324870 0.272860
vt 0.328760 0.276540
vt 0.329500 0.275770
vt 0.300010 0.271230
vt 0.306200 0.277100
vt 0.290680 0.266290
vt 0.865910 0.238990
vt 0.715820 0.238990
vt 0.865910 0.195390
vt 0.609330 0.195390
vt 0.309810 0.273730
vt 0.658800 0.223060
vt 0.611000 0.223060
vt 0.303420 0.285380
vt 0.305440 0.284950
vt 0.301920 0.268370
vt 0.299890 0.268800
vt 0.305060 0.272640
vt 0.305840 0.273380
vt 0.309520 0.269500
vt 0.308740 0.268760
s 0
usemtl Material__29.001
f 114/1/1 106/2/2 105/2/3
f 105/2/4 113/1/5 114/1/1
f 106/2/2 90/3/6 89/3/7
f 89/3/7 105/2/8 106/2/2
f 90/3/9 92/4/10 91/4/11
f 91/4/12 89/3/7 90/3/6
f 92/4/10 108/5/13 107/5/14
f 107/5/14 91/4/11 92/4/10
f 108/5/15 114/1/16 113/1/17
f 113/1/18 107/5/14 108/5/19
f 89/3/20 91/4/20 107/5/20
f 105/2/20 89/3/20 107/5/20
f 113/1/20 105/2/20 107/5/20
f 151/6/21 156/7/22 54/8/23
f 54/8/24 51/9/25 151/6/26
f 156/7/27 150/6/28 50/9/29
f 50/9/29 54/8/30 156/7/22
f 150/6/28 145/10/31 47/11/32
f 47/11/33 50/9/34 150/6/35
f 145/10/36 151/6/37 51/9/38
f 51/9/39 47/11/32 145/10/36
f 150/6/40 156/7/40 151/6/40
f 151/6/41 145/10/42 150/6/41
f 54/8/43 50/9/44 47/11/43
f 47/11/45 51/9/45 54/8/45
f 53/12/46 42/13/47 41/13/48
f 41/13/49 52/12/50 53/12/51
f 42/13/52 33/14/53 32/14/54
f 32/14/55 41/13/56 42/13/47
f 33/14/57 44/15/58 43/15/59
f 43/15/60 32/14/55 33/14/61
f 44/15/62 53/12/51 52/12/63
f 52/12/64 43/15/59 44/15/58
f 33/14/65 42/13/65 53/12/65
f 53/12/66 44/15/66 33/14/66
f 41/13/67 32/14/67 43/15/67
f 43/15/67 52/12/67 41/13/67
f 171/16/68 160/17/69 159/17/49
f 159/17/49 170/16/63 171/16/51
f 160/17/52 153/18/53 152/18/55
f 152/18/55 159/17/56 160/17/47
f 153/18/70 162/19/71 161/19/59
f 161/19/72 152/18/55 153/18/53
f 162/19/58 171/16/73 170/16/63
f 170/16/74 161/19/75 162/19/58
f 153/18/66 160/17/66 171/16/66
f 171/16/66 162/19/66 153/18/66
f 159/17/67 152/18/67 161/19/67
f 161/19/67 170/16/67 159/17/67
f 155/20/51 147/21/76 146/21/49
f 146/21/77 154/20/78 155/20/79
f 147/21/52 142/22/80 141/22/55
f 141/22/81 146/21/49 147/21/47
f 142/22/80 149/23/82 148/23/83
f 148/23/83 141/22/55 142/22/84
f 149/23/58 155/20/85 154/20/86
f 154/20/78 148/23/83 149/23/87
f 142/22/66 147/21/66 155/20/66
f 155/20/66 149/23/66 142/22/66
f 146/21/67 141/22/67 148/23/67
f 148/23/67 154/20/67 146/21/67
f 62/24/68 56/25/76 55/25/49
f 55/25/49 61/24/63 62/24/51
f 56/25/52 49/26/53 48/26/81
f 48/26/55 55/25/56 56/25/47
f 49/26/88 58/27/58 57/27/59
f 57/27/89 48/26/55 49/26/57
f 58/27/90 62/24/51 61/24/63
f 61/24/64 57/27/75 58/27/58
f 49/26/65 56/25/65 62/24/65
f 62/24/66 58/27/66 49/26/66
f 55/25/67 48/26/67 57/27/67
f 57/27/67 61/24/67 55/25/67
f 165/28/91 163/29/92 31/30/93
f 31/30/94 39/31/95 165/28/96
f 163/29/97 164/28/98 38/31/99
f 38/31/99 31/30/94 163/29/100
f 164/28/98 172/32/101 40/33/102
f 40/33/102 38/31/103 164/28/104
f 172/32/105 165/28/96 39/31/106
f 39/31/107 40/33/108 172/32/109
f 164/28/110 163/29/111 165/28/110
f 165/28/112 172/32/112 164/28/112
f 31/30/113 38/31/113 40/33/113
f 40/33/114 39/31/114 31/30/114
f 34/34/67 36/35/67 168/36/67
f 168/36/67 166/37/67 34/34/67
f 35/34/115 167/37/115 169/36/115
f 169/36/115 37/35/115 35/34/115
f 34/34/116 166/37/116 167/37/116
f 167/37/116 35/34/116 34/34/116
f 166/37/117 168/36/117 169/36/117
f 169/36/117 167/37/117 166/37/117
f 168/36/118 36/35/118 37/35/118
f 37/35/119 169/36/119 168/36/119
f 36/35/120 34/34/120 35/34/120
f 35/34/120 37/35/120 36/35/120
f 127/38/67 73/39/67 75/40/67
f 75/40/67 129/41/67 127/38/67
f 128/38/66 130/41/66 76/40/66
f 76/40/66 74/39/66 128/38/66
f 127/38/117 129/41/117 130/41/117
f 130/41/117 128/38/117 127/38/117
f 129/41/121 75/40/121 76/40/121
f 76/40/121 130/41/121 129/41/121
f 75/40/120 73/39/120 74/39/120
f 74/39/120 76/40/120 75/40/120
f 73/39/116 127/38/116 128/38/116
f 128/38/116 74/39/116 73/39/116
f 21/42/67 23/43/67 181/44/67
f 181/44/67 179/45/67 21/42/67
f 22/42/66 180/45/66 182/44/66
f 182/44/66 24/43/66 22/42/66
f 21/42/116 179/45/116 180/45/116
f 180/45/116 22/42/116 21/42/116
f 179/45/117 181/44/117 182/44/117
f 182/44/117 180/45/117 179/45/117
f 181/44/121 23/43/121 24/43/121
f 24/43/121 182/44/121 181/44/121
f 23/43/120 21/42/120 22/42/120
f 22/42/120 24/43/120 23/43/120
f 123/46/20 77/47/20 79/48/20
f 79/48/20 125/49/20 123/46/20
f 124/46/115 126/49/115 80/48/115
f 80/48/115 78/47/115 124/46/115
f 123/46/117 125/49/117 126/49/117
f 126/49/117 124/46/117 123/46/117
f 125/49/121 79/48/121 80/48/121
f 80/48/121 126/49/121 125/49/121
f 79/48/120 77/47/120 78/47/120
f 78/47/120 80/48/120 79/48/120
f 77/47/116 123/46/116 124/46/116
f 124/46/116 78/47/116 77/47/116
f 12/50/122 26/51/122 25/51/122
f 25/51/123 11/50/123 12/50/123
f 6/52/124 12/50/124 11/50/124
f 11/50/125 5/52/125 6/52/125
f 4/53/126 6/54/126 5/54/126
f 5/54/119 3/53/119 4/53/119
f 2/55/120 4/53/120 3/53/120
f 3/53/120 1/55/120 2/55/120
f 30/56/116 2/55/116 1/55/116
f 1/55/127 29/56/127 30/56/127
f 26/51/128 30/57/128 29/57/128
f 29/57/128 25/51/128 26/51/128
f 1/55/129 3/53/129 5/54/129
f 1/55/130 5/54/131 11/58/131
f 1/55/132 11/58/133 25/59/133
f 1/55/129 25/59/129 29/56/129
f 2/55/134 30/56/135 26/59/135
f 2/55/135 26/59/136 12/58/136
f 2/55/137 12/58/137 6/54/137
f 2/55/135 6/54/135 4/53/135
f 59/60/67 63/61/67 9/62/67
f 9/62/138 7/63/138 59/60/138
f 60/60/66 8/63/66 10/62/66
f 10/62/139 64/61/139 60/60/139
f 64/61/140 10/62/140 9/62/140
f 9/62/141 63/61/141 64/61/141
f 60/60/142 64/61/142 63/61/142
f 63/61/143 59/60/143 60/60/143
f 8/63/144 60/60/144 59/60/144
f 59/60/144 7/63/144 8/63/144
f 10/62/145 8/63/145 7/63/145
f 7/63/146 9/62/146 10/62/146
f 15/64/20 19/65/20 17/66/20
f 17/66/20 13/67/20 15/64/20
f 16/64/115 14/67/115 18/66/115
f 18/66/115 20/65/115 16/64/115
f 20/65/117 18/66/117 17/66/117
f 17/66/117 19/65/117 20/65/117
f 16/64/147 20/65/147 19/65/147
f 19/65/118 15/64/118 16/64/118
f 14/67/120 16/64/120 15/64/120
f 15/64/120 13/67/120 14/67/120
f 18/66/148 14/67/148 13/67/148
f 13/67/116 17/66/116 18/66/116
f 118/68/117 116/69/117 115/69/117
f 115/69/117 117/68/117 118/68/117
f 132/70/149 118/68/149 117/68/149
f 117/68/149 131/70/149 132/70/149
f 134/71/117 132/72/117 131/72/117
f 131/72/117 133/71/117 134/71/117
f 84/73/119 134/71/119 133/71/119
f 133/71/121 83/73/121 84/73/121
f 82/74/120 84/73/120 83/73/120
f 83/73/120 81/74/120 82/74/120
f 116/69/150 82/75/150 81/75/150
f 81/75/150 115/69/150 116/69/150
f 83/73/151 133/71/151 131/72/151
f 83/73/152 131/72/152 117/76/152
f 83/73/151 117/76/153 115/77/151
f 83/73/152 115/77/152 81/74/152
f 84/73/154 82/74/154 116/77/154
f 84/73/155 116/77/156 118/76/154
f 84/73/155 118/76/155 132/72/155
f 84/73/154 132/72/154 134/71/154
f 175/78/157 157/79/157 93/80/157
f 93/80/157 109/81/157 175/78/157
f 176/78/158 110/81/158 94/80/158
f 94/80/159 158/79/159 176/78/159
f 158/79/160 94/80/160 93/80/160
f 93/80/161 157/79/161 158/79/161
f 176/78/162 158/79/162 157/79/162
f 157/79/163 175/78/163 176/78/163
f 110/81/143 176/78/143 175/78/143
f 175/78/164 109/81/164 110/81/164
f 94/80/165 110/81/165 109/81/165
f 109/81/166 93/80/166 94/80/166
f 103/82/167 101/83/167 65/84/167
f 65/84/167 67/85/167 103/82/167
f 104/82/65 68/85/65 66/84/65
f 66/84/168 102/83/168 104/82/168
f 102/83/148 66/84/148 65/84/148
f 65/84/116 101/83/116 102/83/116
f 104/82/117 102/83/117 101/83/117
f 101/83/117 103/82/117 104/82/117
f 68/85/121 104/82/121 103/82/121
f 103/82/121 67/85/121 68/85/121
f 66/84/120 68/85/120 67/85/120
f 67/85/120 65/84/120 66/84/120
f 192/86/127 178/87/127 177/87/127
f 177/87/127 191/86/127 192/86/127
f 198/88/169 192/86/169 191/86/169
f 191/86/170 197/88/170 198/88/170
f 200/89/171 198/90/171 197/90/171
f 197/90/116 199/89/116 200/89/116
f 202/91/117 200/89/117 199/89/117
f 199/89/117 201/91/117 202/91/117
f 174/92/121 202/91/121 201/91/121
f 201/91/122 173/92/122 174/92/122
f 178/87/172 174/93/172 173/93/172
f 173/93/172 177/87/172 178/87/172
f 201/91/173 199/89/173 197/90/173
f 201/91/173 197/90/173 191/94/174
f 201/91/175 191/94/176 177/95/176
f 201/91/177 177/95/177 173/92/176
f 202/91/178 174/92/179 178/95/180
f 202/91/181 178/95/181 192/94/182
f 202/91/179 192/94/179 198/90/179
f 202/91/183 198/90/183 200/89/183
f 143/96/67 139/97/67 193/98/67
f 193/98/184 195/99/184 143/96/184
f 144/96/66 196/99/66 194/98/66
f 194/98/66 140/97/66 144/96/66
f 140/97/185 194/98/185 193/98/185
f 193/98/186 139/97/186 140/97/186
f 144/96/145 140/97/145 139/97/145
f 139/97/187 143/96/187 144/96/187
f 196/99/188 144/96/188 143/96/188
f 143/96/140 195/99/140 196/99/140
f 194/98/189 196/99/189 195/99/189
f 195/99/189 193/98/189 194/98/189
f 187/100/67 183/101/67 185/102/67
f 185/102/67 189/103/67 187/100/67
f 188/100/115 190/103/115 186/102/115
f 186/102/115 184/101/115 188/100/115
f 184/101/120 186/102/120 185/102/120
f 185/102/120 183/101/120 184/101/120
f 188/100/116 184/101/116 183/101/116
f 183/101/116 187/100/116 188/100/116
f 190/103/117 188/100/117 187/100/117
f 187/100/117 189/103/117 190/103/117
f 186/102/147 190/103/147 189/103/147
f 189/103/147 185/102/147 186/102/147
f 86/104/120 88/105/120 87/105/120
f 87/105/120 85/104/120 86/104/120
f 72/106/190 86/104/190 85/104/190
f 85/104/191 71/106/191 72/106/191
f 70/107/120 72/108/120 71/108/120
f 71/108/120 69/107/120 70/107/120
f 120/109/116 70/107/116 69/107/116
f 69/107/116 119/109/116 120/109/116
f 122/110/117 120/109/117 119/109/117
f 119/109/117 121/110/117 122/110/117
f 88/105/192 122/111/192 121/111/192
f 121/111/193 87/105/193 88/105/193
f 119/109/194 69/107/194 71/108/194
f 119/109/195 71/108/195 85/112/195
f 119/109/196 85/112/197 87/113/197
f 119/109/195 87/113/195 121/110/195
f 120/109/198 122/110/198 88/113/198
f 120/109/199 88/113/199 86/112/199
f 120/109/198 86/112/198 72/108/198
f 120/109/198 72/108/198 70/107/198
f 27/114/157 45/115/157 111/116/157
f 111/116/200 95/117/200 27/114/200
f 28/114/159 96/117/159 112/116/159
f 112/116/158 46/115/158 28/114/158
f 46/115/143 112/116/143 111/116/143
f 111/116/143 45/115/143 46/115/143
f 28/114/201 46/115/201 45/115/201
f 45/115/202 27/114/202 28/114/202
f 96/117/203 28/114/203 27/114/203
f 27/114/146 95/117/146 96/117/146
f 112/116/140 96/117/140 95/117/140
f 95/117/204 111/116/204 112/116/204
f 97/118/205 99/119/205 137/120/205
f 137/120/205 135/121/205 97/118/205
f 98/118/206 136/121/206 138/120/206
f 138/120/206 100/119/206 98/118/206
f 100/119/147 138/120/147 137/120/147
f 137/120/147 99/119/147 100/119/147
f 98/118/120 100/119/120 99/119/120
f 99/119/120 97/118/120 98/118/120
f 136/121/148 98/118/148 97/118/148
f 97/118/148 135/121/148 136/121/148
f 138/120/117 136/121/117 135/121/117
f 135/121/117 137/120/117 138/120/117
