# Blender 3.6.2
# www.blender.org
mtllib MaquinaCristal.mtl
o CristalPinball
v 2.762752 6.742529 1.557653
v 2.762752 6.742529 -1.559016
v -2.094778 5.268203 1.346987
v -2.094778 5.268203 -1.559016
v -2.265320 5.216441 1.306048
v -2.469885 5.154353 1.306048
v -2.265320 5.216441 0.206336
v -2.469885 5.154353 0.206336
v -2.094778 5.268203 1.557652
v -2.567724 5.124658 1.375056
v -2.167480 5.246137 1.375056
v -2.567724 5.124658 1.529584
v -2.167480 5.246137 1.529584
v 2.773306 6.707756 -1.559016
v 2.773306 6.707756 1.557653
v -2.084224 5.233429 -1.559016
v -2.084224 5.233429 1.346987
v -2.254765 5.181667 1.306048
v -2.459331 5.119579 1.306048
v -2.254765 5.181667 0.206336
v -2.459331 5.119579 0.206336
v -2.084224 5.233429 1.557652
v -2.156925 5.211363 1.375056
v -2.557170 5.089884 1.375056
v -2.156925 5.211363 1.529584
v -2.557170 5.089884 1.529584
vn 0.2904 -0.9569 -0.0000
vn -0.2904 0.9569 -0.0000
vn -0.0000 -0.0000 1.0000
vn 0.9569 0.2904 -0.0000
vn -0.9569 -0.2904 -0.0000
vn -0.0000 -0.0000 -1.0000
vt 0.000000 0.000000
s 0
usemtl Cristal
f 2/1/1 3/1/1 4/1/1
f 8/1/1 5/1/1 6/1/1
f 9/1/1 3/1/1 1/1/1
f 10/1/1 13/1/1 12/1/1
f 14/1/2 17/1/2 15/1/2
f 18/1/2 21/1/2 19/1/2
f 22/1/2 15/1/2 17/1/2
f 25/1/2 24/1/2 26/1/2
f 10/1/3 23/1/3 11/1/3
f 3/1/4 16/1/4 4/1/4
f 11/1/5 25/1/5 13/1/5
f 6/1/6 18/1/6 19/1/6
f 12/1/4 24/1/4 10/1/4
f 7/1/5 18/1/5 5/1/5
f 12/1/6 25/1/6 26/1/6
f 8/1/3 20/1/3 7/1/3
f 6/1/4 21/1/4 8/1/4
f 2/1/5 15/1/5 1/1/5
f 9/1/6 15/1/6 22/1/6
f 4/1/3 14/1/3 2/1/3
f 9/1/4 17/1/4 3/1/4
f 2/1/1 1/1/1 3/1/1
f 8/1/1 7/1/1 5/1/1
f 10/1/1 11/1/1 13/1/1
f 14/1/2 16/1/2 17/1/2
f 18/1/2 20/1/2 21/1/2
f 25/1/2 23/1/2 24/1/2
f 10/1/3 24/1/3 23/1/3
f 3/1/4 17/1/4 16/1/4
f 11/1/5 23/1/5 25/1/5
f 6/1/6 5/1/6 18/1/6
f 12/1/4 26/1/4 24/1/4
f 7/1/5 20/1/5 18/1/5
f 12/1/6 13/1/6 25/1/6
f 8/1/3 21/1/3 20/1/3
f 6/1/4 19/1/4 21/1/4
f 2/1/5 14/1/5 15/1/5
f 9/1/6 1/1/6 15/1/6
f 4/1/3 16/1/3 14/1/3
f 9/1/4 22/1/4 17/1/4
